<svg width="25" height="18" viewBox="0 0 25 18" fill="none" xmlns="http://www.w3.org/2000/svg">
<path d="M12.4902 9.91602C12.1908 9.91602 11.8913 9.78255 11.5918 9.51562L1.80664 0.863281C2.32096 0.544271 2.96549 0.384766 3.74023 0.384766H21.2402C22.0215 0.384766 22.666 0.544271 23.1738 0.863281L13.3887 9.51562C13.0957 9.78255 12.7962 9.91602 12.4902 9.91602ZM0.78125 15.8047C0.703125 15.6159 0.641276 15.4043 0.595703 15.1699C0.556641 14.9355 0.537109 14.6654 0.537109 14.3594V3.55859C0.537109 3.22656 0.559896 2.9401 0.605469 2.69922C0.657552 2.45182 0.712891 2.26628 0.771484 2.14258L8.03711 8.56836L0.78125 15.8047ZM3.49609 17.5332C3.13802 17.5332 2.81901 17.4941 2.53906 17.416C2.25911 17.3444 2.02148 17.2435 1.82617 17.1133L9.27734 9.65234L10.6152 10.8438C10.9212 11.1107 11.2272 11.3092 11.5332 11.4395C11.8392 11.5697 12.1582 11.6348 12.4902 11.6348C12.8223 11.6348 13.1413 11.5697 13.4473 11.4395C13.7598 11.3092 14.069 11.1107 14.375 10.8438L15.7129 9.65234L23.1641 17.1133C22.9688 17.2435 22.7311 17.3444 22.4512 17.416C22.1712 17.4941 21.8522 17.5332 21.4941 17.5332H3.49609ZM24.209 15.8047L16.9531 8.56836L24.2188 2.14258C24.2708 2.26628 24.3229 2.45182 24.375 2.69922C24.4271 2.9401 24.4531 3.22656 24.4531 3.55859V14.3594C24.4531 14.6654 24.4303 14.9355 24.3848 15.1699C24.3392 15.4043 24.2806 15.6159 24.209 15.8047Z" fill="#8D8D95"/>
</svg>
