<svg width="14" height="21" viewBox="0 0 14 21" fill="none" xmlns="http://www.w3.org/2000/svg">
<path d="M2.42969 20.4316C1.6875 20.4316 1.12435 20.2298 0.740234 19.8262C0.35612 19.429 0.164062 18.8301 0.164062 18.0293V11.1055C0.164062 10.3112 0.35612 9.71549 0.740234 9.31836C1.12435 8.92122 1.6875 8.72266 2.42969 8.72266H11.5703C12.3125 8.72266 12.8757 8.92122 13.2598 9.31836C13.6439 9.71549 13.8359 10.3112 13.8359 11.1055V18.0293C13.8359 18.8301 13.6439 19.429 13.2598 19.8262C12.8757 20.2298 12.3125 20.4316 11.5703 20.4316H2.42969ZM1.95117 9.54297V6.4375C1.95117 5.23307 2.18555 4.22721 2.6543 3.41992C3.12956 2.60612 3.7513 1.99414 4.51953 1.58398C5.28776 1.17383 6.11458 0.96875 7 0.96875C7.88542 0.96875 8.71224 1.17383 9.48047 1.58398C10.2487 1.99414 10.8672 2.60612 11.3359 3.41992C11.8112 4.22721 12.0488 5.23307 12.0488 6.4375V9.54297H10.2227V6.25195C10.2227 5.49023 10.0729 4.84896 9.77344 4.32812C9.48047 3.80078 9.08984 3.40039 8.60156 3.12695C8.11328 2.85352 7.57943 2.7168 7 2.7168C6.42057 2.7168 5.88672 2.85352 5.39844 3.12695C4.91016 3.40039 4.51953 3.80078 4.22656 4.32812C3.93359 4.84896 3.78711 5.49023 3.78711 6.25195V9.54297H1.95117Z" fill="#8D8D95"/>
</svg>
